<?xml version="1.0" encoding="UTF-8" standalone="no"?>
<!-- Created with Inkscape (http://www.inkscape.org/) -->
<svg
   xmlns:dc="http://purl.org/dc/elements/1.1/"
   xmlns:cc="http://creativecommons.org/ns#"
   xmlns:rdf="http://www.w3.org/1999/02/22-rdf-syntax-ns#"
   xmlns:svg="http://www.w3.org/2000/svg"
   xmlns="http://www.w3.org/2000/svg"
   xmlns:sodipodi="http://sodipodi.sourceforge.net/DTD/sodipodi-0.dtd"
   xmlns:inkscape="http://www.inkscape.org/namespaces/inkscape"
   width="447.565"
   height="96"
   id="svg2"
   sodipodi:version="0.32"
   inkscape:version="0.46"
   version="1.0"
   sodipodi:docname="CPH-logo.svg"
   inkscape:output_extension="org.inkscape.output.svg.inkscape">
  <defs
     id="defs4">
    <inkscape:perspective
       sodipodi:type="inkscape:persp3d"
       inkscape:vp_x="0 : 526.18109 : 1"
       inkscape:vp_y="0 : 1000 : 0"
       inkscape:vp_z="744.09448 : 526.18109 : 1"
       inkscape:persp3d-origin="372.04724 : 350.78739 : 1"
       id="perspective10" />
    <inkscape:perspective
       id="perspective3188"
       inkscape:persp3d-origin="372.04724 : 350.78739 : 1"
       inkscape:vp_z="744.09448 : 526.18109 : 1"
       inkscape:vp_y="0 : 1000 : 0"
       inkscape:vp_x="0 : 526.18109 : 1"
       sodipodi:type="inkscape:persp3d" />
  </defs>
  <sodipodi:namedview
     id="base"
     pagecolor="#ffffff"
     bordercolor="#666666"
     borderopacity="1.0"
     gridtolerance="10000"
     guidetolerance="10"
     objecttolerance="10"
     inkscape:pageopacity="0.0"
     inkscape:pageshadow="2"
     inkscape:zoom="0.62225397"
     inkscape:cx="821.49928"
     inkscape:cy="476.73162"
     inkscape:document-units="px"
     inkscape:current-layer="layer1"
     showgrid="true"
     inkscape:window-width="1440"
     inkscape:window-height="850"
     inkscape:window-x="-8"
     inkscape:window-y="-8">
    <inkscape:grid
       type="xygrid"
       id="grid2383"
       visible="true"
       enabled="true" />
  </sodipodi:namedview>
  <metadata
     id="metadata7">
    <rdf:RDF>
      <cc:Work
         rdf:about="">
        <dc:format>image/svg+xml</dc:format>
        <dc:type
           rdf:resource="http://purl.org/dc/dcmitype/StillImage" />
      </cc:Work>
    </rdf:RDF>
  </metadata>
  <g
     inkscape:label="Layer 1"
     inkscape:groupmode="layer"
     id="layer1"
     transform="translate(-252.93498,-786.86218)">
    <path
       style="fill:#1a0044;fill-opacity:1;fill-rule:evenodd;stroke:#1a0044;stroke-width:1px;stroke-linecap:butt;stroke-linejoin:miter;stroke-opacity:1"
       d="M 640,787.36218 L 700,787.36218 L 675,882.36218 L 615,882.36218 L 640,787.36218 z"
       id="path3202" />
    <path
       transform="scale(1.0327175,0.968319)"
       style="font-size:41.30870056px;font-style:normal;font-weight:normal;line-height:125%;fill:#1a0044;fill-opacity:1;stroke:none;stroke-width:1px;stroke-linecap:butt;stroke-linejoin:miter;stroke-opacity:1;font-family:Bitstream Vera Sans"
       d="M 262.1534,876.64753 L 252.75413,888.346 L 258.56998,900.90369 L 264.94796,900.90369 L 258.6072,887.94944 L 268.00263,876.64753 L 262.1534,876.64753 z M 244.92176,900.90369 L 250.34139,900.90369 L 254.61879,876.64753 L 249.19915,876.64753 L 244.92176,900.90369 z M 274.23179,893.73259 C 274.23585,893.61969 274.24176,893.53156 274.24949,893.46822 C 274.25721,893.40488 274.26555,893.34981 274.2745,893.30298 L 274.88056,889.86614 C 274.96332,889.12743 275.19114,888.37424 275.56404,887.60659 C 275.93692,886.83896 276.67507,886.4245 277.77849,886.36321 C 278.22136,886.36598 278.56561,886.45961 278.81123,886.64411 C 279.05682,886.82863 279.22322,887.08749 279.31043,887.4207 L 274.23179,893.73259 z M 279.17867,890.79145 L 279.06795,891.41933 C 278.70335,893.74843 278.32239,895.38561 277.92507,896.33087 C 277.52773,897.27614 276.80158,897.73191 275.7466,897.69817 C 275.5891,897.71676 275.3423,897.67959 275.0062,897.58664 C 274.67009,897.4937 274.39653,897.23346 274.18553,896.80592 L 279.17867,890.79145 z M 287.21749,881.37318 L 283.84675,881.37318 L 281.99643,883.62035 C 281.40149,883.28508 280.76443,883.07165 280.08524,882.98007 C 279.40602,882.88852 278.75488,882.84859 278.13183,882.86028 C 275.92867,882.90803 274.26378,883.42576 273.13718,884.41346 C 272.01056,885.4012 271.22427,886.57252 270.77829,887.92741 C 270.33231,889.28233 270.02869,890.53443 269.86744,891.6837 C 269.58175,893.18664 269.40478,894.51814 269.33653,895.6782 C 269.26828,896.83828 269.43193,897.83105 269.82751,898.65652 L 266.08217,903.21694 L 269.51901,903.21694 L 271.63754,900.57322 C 272.19478,900.82933 272.81969,900.99456 273.51226,901.06892 C 274.20482,901.14327 274.81173,901.17632 275.33299,901.16806 C 276.86045,901.13432 278.00919,900.92916 278.77923,900.55257 C 279.54924,900.17597 280.09487,899.83036 280.41612,899.51573 C 281.44238,898.65033 282.16198,897.63828 282.57493,896.47958 C 282.98785,895.32089 283.33319,893.85445 283.61096,892.08026 C 283.88407,890.57046 284.03756,889.29404 284.07142,888.25099 C 284.10525,887.20798 283.98907,886.33637 283.72288,885.63619 L 287.21749,881.37318 z M 286.50466,900.90369 L 290.8668,900.90369 L 291.36797,898.06168 L 291.56625,898.06168 C 291.911,899.01522 292.42121,899.7684 293.09688,900.32124 C 293.77254,900.87408 294.6219,901.15635 295.64498,901.16806 C 296.86914,901.1344 297.84571,900.85289 298.57471,900.32354 C 299.30368,899.79418 299.84247,899.21893 300.1911,898.59777 C 300.5397,897.97662 300.75554,897.51152 300.83861,897.20247 C 301.05711,896.50988 301.25497,895.74705 301.43218,894.914 C 301.60936,894.08096 301.78387,893.16943 301.95572,892.1794 L 302.3947,889.50263 C 302.72804,888.04171 302.76446,886.60143 302.50398,885.1818 C 302.24345,883.76219 301.11945,882.99937 299.13197,882.89332 C 298.70825,882.84033 298.07536,882.95462 297.23329,883.23618 C 296.39119,883.51778 295.30448,884.28474 293.97316,885.53705 L 293.87402,885.53705 L 295.44162,876.64753 L 290.78206,876.64753 L 286.50466,900.90369 z M 293.46026,887.88335 C 294.20353,887.36564 294.77929,887.01314 295.18754,886.82586 C 295.59576,886.63861 296.00098,886.55049 296.40318,886.56149 C 297.24953,886.53672 297.70146,886.93328 297.75897,887.75116 C 297.81644,888.56908 297.65568,889.95703 297.27668,891.91503 C 297.00179,893.67683 296.68421,894.97803 296.32393,895.81865 C 295.96364,896.65928 295.33929,897.07649 294.45089,897.07029 C 293.78104,897.04275 293.25989,896.87477 292.88743,896.56633 C 292.51496,896.2579 292.24553,895.97425 292.07914,895.71538 L 293.46026,887.88335 z M 318.30417,893.1047 C 318.71517,890.89886 318.96394,889.23827 319.05048,888.12294 C 319.13699,887.00763 318.99027,886.09059 318.61032,885.37181 C 318.319,884.7047 317.82541,884.13052 317.12957,883.64926 C 316.43369,883.16804 315.38759,882.91606 313.99126,882.89332 C 313.23774,882.85616 312.31391,882.98835 311.21978,883.28988 C 310.12563,883.59145 309.11926,884.28543 308.20066,885.37181 C 307.45602,886.36185 306.90167,887.53775 306.53761,888.89953 C 306.17354,890.26134 305.86707,891.71814 305.61821,893.26994 C 305.59372,893.39318 305.54656,893.83242 305.47672,894.58767 C 305.40687,895.34292 305.39133,896.07132 305.4301,896.77287 C 305.69533,898.72399 306.46163,899.97701 307.72902,900.53191 C 308.99639,901.08682 310.21307,901.33191 311.37905,901.2672 C 312.51246,901.25825 313.52401,901.14396 314.4137,900.92434 C 315.30336,900.70472 316.21041,900.43346 317.13483,900.11057 L 317.25685,896.60764 C 316.15215,897.10953 315.23248,897.45239 314.49784,897.63621 C 313.76317,897.82003 313.0539,897.90678 312.37002,897.89645 C 310.83305,897.80833 309.99134,897.23277 309.84489,896.16977 C 309.69843,895.10678 309.7533,894.08509 310.00949,893.1047 L 318.30417,893.1047 z M 310.46987,890.49403 C 310.61226,889.33121 310.87375,888.27786 311.25432,887.33395 C 311.63487,886.39007 312.35227,885.89025 313.40652,885.83447 C 314.51122,885.8634 315.11276,886.30952 315.21113,887.17285 C 315.30948,888.0362 315.21615,889.14326 314.93115,890.49403 L 310.46987,890.49403 z M 321.55561,900.90369 L 326.21517,900.90369 L 328.33056,888.90779 C 328.85089,888.4128 329.37293,887.99008 329.8967,887.63963 C 330.42045,887.28921 331.00765,887.10608 331.65831,887.09023 C 332.39132,887.14601 332.78419,887.45583 332.83692,888.01967 C 332.88963,888.58354 332.86361,889.06684 332.75887,889.46958 L 330.74255,900.90369 L 335.40211,900.90369 L 337.66318,888.08163 C 337.77489,887.60308 337.83181,886.9703 337.83393,886.18329 C 337.83602,885.39631 337.57916,884.68275 337.06336,884.04261 C 336.54753,883.4025 335.56859,883.06347 334.12656,883.02551 C 332.96352,883.05789 331.90089,883.42277 330.93868,884.12018 C 329.97644,884.81761 329.15297,885.65341 328.46828,886.62758 L 328.36914,886.62758 L 328.94024,883.38902 L 324.64419,883.38902 L 321.55561,900.90369 z M 339.9509,900.90369 L 344.61046,900.90369 L 346.75498,888.74256 C 347.47645,888.16495 348.07294,887.73397 348.54443,887.44961 C 349.01591,887.16529 349.51183,887.02347 350.0322,887.02414 C 350.77027,887.06684 351.17537,887.36977 351.24751,887.93292 C 351.31961,888.4961 351.2898,889.0634 351.15806,889.63482 L 349.17088,900.90369 L 353.7974,900.90369 L 356.01768,888.31296 C 356.13191,887.75875 356.20352,887.16529 356.23249,886.53257 C 356.26143,885.89988 356.13913,885.28164 355.86559,884.67784 C 355.57982,884.10023 355.16701,883.66925 354.62715,883.38489 C 354.08725,883.10057 353.46648,882.95875 352.76482,882.95942 C 351.85238,882.94498 350.93926,883.18043 350.02545,883.66579 C 349.11162,884.15117 348.21899,884.97321 347.34754,886.13188 L 347.14926,886.13188 L 347.63494,883.75253 L 348.88785,876.64753 L 344.22829,876.64753 L 339.9509,900.90369 z M 361.51699,887.98249 C 362.06434,887.54119 362.71169,887.11847 363.45904,886.71433 C 364.20637,886.31021 365.08167,886.09403 366.08494,886.06579 C 366.53572,886.07063 366.91665,886.1436 367.22775,886.28473 C 367.53882,886.42588 367.75211,886.60625 367.86761,886.82586 C 367.98952,887.03242 368.03492,887.32157 368.00379,887.69333 C 367.97264,888.06512 367.88006,888.66822 367.72604,889.50263 C 366.9343,889.54946 366.09228,889.67063 365.19997,889.86614 C 364.30765,890.06168 363.40345,890.34808 362.48735,890.72535 C 360.80657,891.49576 359.61968,892.41693 358.9267,893.48887 C 358.23371,894.56082 357.83265,895.5233 357.72354,896.37631 C 357.4557,898.34809 357.77094,899.68372 358.66928,900.3832 C 359.56762,901.08269 360.52326,901.4104 361.5362,901.36634 C 362.31857,901.33742 363.0097,901.20524 363.60957,900.96978 C 364.20943,900.73432 364.58418,900.56909 364.73382,900.47408 C 365.12079,900.26685 365.45041,900.04517 365.7227,899.80902 C 365.99497,899.57288 366.2964,899.27683 366.62699,898.92089 L 366.75918,898.92089 C 366.87955,899.35876 367.17111,899.82141 367.63388,900.30885 C 368.09662,900.79629 368.87754,901.06066 369.97664,901.10197 L 371.33155,901.10197 L 371.89099,897.9295 C 371.46739,897.8758 371.21571,897.70231 371.13595,897.40902 C 371.05616,897.11573 371.03046,896.92571 371.05885,896.83896 L 372.57401,888.24686 C 372.68457,887.77596 372.72565,887.2307 372.69723,886.61106 C 372.66879,885.99145 372.39688,885.34704 371.88152,884.67784 C 371.23955,883.98456 370.42086,883.52054 369.42544,883.28575 C 368.43,883.051 367.59823,882.94222 366.93015,882.95942 C 365.10557,882.98353 363.66411,883.2245 362.60576,883.68231 C 361.54739,884.14016 360.61673,884.67028 359.81377,885.27267 L 361.51699,887.98249 z M 366.78391,894.65789 C 366.69816,895.30024 366.42229,895.99008 365.95631,896.72743 C 365.4903,897.46478 364.73668,897.86547 363.69545,897.9295 C 363.12943,897.91436 362.71746,897.70506 362.45952,897.30161 C 362.20157,896.89817 362.12294,896.39146 362.22363,895.78147 C 362.43315,894.7911 362.86863,894.02899 363.53008,893.49514 C 364.19151,892.96131 364.88234,892.58351 365.60258,892.36177 C 366.32279,892.14004 366.87585,892.00214 367.26176,891.94807 L 366.78391,894.65789 z M 376.9338,883.38902 L 378.76915,900.90369 L 383.26348,900.90369 L 390.97858,883.38902 L 386.51729,883.38902 L 383.70529,889.96528 C 383.42001,890.61865 383.19621,891.14602 383.03387,891.54739 C 382.87151,891.94877 382.65743,892.46788 382.39161,893.1047 L 382.22637,893.1047 L 382.02774,890.29575 L 381.46117,883.38902 L 376.9338,883.38902 z M 391.39314,900.90369 L 396.0527,900.90369 L 398.16809,888.90779 C 398.68842,888.4128 399.21047,887.99008 399.73424,887.63963 C 400.25798,887.28921 400.84518,887.10608 401.49584,887.09023 C 402.22885,887.14601 402.62172,887.45583 402.67446,888.01967 C 402.72716,888.58354 402.70114,889.06684 402.5964,889.46958 L 400.58008,900.90369 L 405.23964,900.90369 L 407.50072,888.08163 C 407.61242,887.60308 407.66934,886.9703 407.67146,886.18329 C 407.67355,885.39631 407.4167,884.68275 406.9009,884.04261 C 406.38506,883.4025 405.40613,883.06347 403.96409,883.02551 C 402.80105,883.05789 401.73843,883.42277 400.77621,884.12018 C 399.81397,884.81761 398.99051,885.65341 398.30582,886.62758 L 398.20668,886.62758 L 398.77777,883.38902 L 394.48172,883.38902 L 391.39314,900.90369 z M 423.18575,884.71088 C 422.77466,884.28956 422.12996,883.893 421.25164,883.52121 C 420.3733,883.14945 419.37143,882.95117 418.24603,882.92637 C 417.78584,882.90849 417.25216,882.94429 416.64499,883.03377 C 416.0378,883.12329 415.34232,883.37389 414.55854,883.78558 C 413.59321,884.3288 412.84246,885.00212 412.30629,885.80555 C 411.77011,886.60901 411.42663,887.45582 411.27585,888.346 C 411.02773,889.69059 411.26106,890.83483 411.97586,891.77871 C 412.69064,892.72261 413.92458,893.62726 415.67766,894.49266 C 416.31724,894.8011 416.7877,895.08475 417.08905,895.34361 C 417.39038,895.60248 417.49929,895.96874 417.41577,896.4424 C 417.36692,896.78182 417.178,897.11917 416.849,897.45445 C 416.51999,897.78974 416.01176,897.97012 415.32432,897.99559 C 414.46396,897.97081 413.77757,897.75601 413.26514,897.35118 C 412.7527,896.94637 412.32191,896.50024 411.97275,896.0128 L 409.33138,899.18527 C 409.70835,899.60868 410.32698,900.0672 411.18727,900.56083 C 412.04755,901.05446 413.26147,901.32296 414.82905,901.36634 C 415.51388,901.38001 416.34362,901.22783 417.31828,900.90981 C 418.29292,900.59179 419.20296,900.02591 420.0484,899.21219 C 420.89381,898.39848 421.4651,897.2549 421.76227,895.78147 C 422.01571,893.95772 421.67438,892.59043 420.73828,891.67957 C 419.80216,890.76874 418.72611,890.05411 417.51014,889.53568 C 416.86973,889.25135 416.36055,888.96082 415.98259,888.66407 C 415.60462,888.36736 415.45019,887.98595 415.51931,887.51984 C 415.60174,887.08749 415.8216,886.75427 416.1789,886.52018 C 416.53618,886.28612 416.99079,886.1677 417.54275,886.16493 C 418.06581,886.15806 418.55683,886.26271 419.01579,886.47887 C 419.47473,886.69507 420.03479,887.06409 420.69596,887.58593 L 423.18575,884.71088 z M 433.77225,900.90369 L 449.86591,900.90369 L 450.66428,896.37631 L 439.99025,896.37631 L 443.46927,876.64753 L 438.04964,876.64753 L 433.77225,900.90369 z M 466.01899,883.38902 L 463.89777,895.41796 C 463.74142,895.59008 463.52689,895.79938 463.25417,896.04585 C 462.98144,896.29232 462.62063,896.53466 462.17175,896.77287 C 462.02802,896.84998 461.80084,896.94361 461.4902,897.05376 C 461.17954,897.16392 460.88383,897.22451 460.60307,897.23552 C 459.96351,897.20799 459.57955,896.94912 459.4512,896.45893 C 459.32283,895.96874 459.32179,895.41246 459.44807,894.79008 L 461.45856,883.38902 L 456.83205,883.38902 L 454.48939,896.67373 C 454.3877,897.11619 454.35043,897.70001 454.37759,898.4252 C 454.40474,899.15039 454.67519,899.80764 455.18895,900.39697 C 455.70271,900.9863 456.63866,901.29841 457.99681,901.33329 C 459.38122,901.29474 460.51472,900.93398 461.3973,900.25102 C 462.27986,899.56806 463.03181,898.79422 463.65316,897.9295 L 463.85144,897.9295 L 463.32696,900.90369 L 467.55692,900.90369 L 470.6455,883.38902 L 466.01899,883.38902 z M 473.46855,886.99109 L 476.04618,886.99109 L 473.59279,900.90369 L 478.21931,900.90369 L 480.69018,886.89195 L 483.96178,886.89195 L 484.5795,883.38902 L 481.30789,883.38902 L 481.62258,881.60451 C 481.73181,880.84446 482.03646,880.38181 482.53653,880.21655 C 483.03656,880.05134 483.91569,879.98525 485.1739,880.01827 L 485.77997,876.58144 C 485.40234,876.53258 485.01598,876.49815 484.62089,876.47816 C 484.22578,876.45822 483.85983,876.44858 483.52307,876.44925 C 483.10041,876.44101 482.53684,876.48232 481.83236,876.57317 C 481.12785,876.66408 480.43892,876.85409 479.76557,877.14323 C 478.72065,877.68094 478.03477,878.29093 477.70793,878.97318 C 477.38106,879.65547 477.19234,880.25719 477.14175,880.77835 L 476.68138,883.38902 L 474.10375,883.38902 L 473.46855,886.99109 z M 485.72588,886.75977 L 488.33655,886.75977 L 486.6524,896.31022 C 486.42082,897.79466 486.55101,898.87949 487.04297,899.56469 C 487.53492,900.2499 488.18139,900.68358 488.98237,900.86574 C 489.78334,901.04791 490.53156,901.12665 491.22705,901.10197 C 491.52798,901.10541 491.84459,901.09026 492.17688,901.05653 C 492.50916,901.02279 493.13339,900.94981 494.04957,900.83759 L 494.68477,897.23552 C 494.21993,897.28303 493.91328,897.31194 493.76483,897.32227 C 493.61635,897.3326 493.48757,897.33673 493.37848,897.33466 C 492.27476,897.30781 491.63139,897.13019 491.44834,896.80178 C 491.26528,896.47339 491.22499,896.15532 491.32746,895.84757 L 492.93002,886.75977 L 496.30077,886.75977 L 496.89518,883.38902 L 493.52443,883.38902 L 494.64331,877.04409 L 490.04984,877.04409 L 488.93096,883.38902 L 486.32028,883.38902 L 485.72588,886.75977 z M 497.82759,900.90369 L 502.48715,900.90369 L 504.63168,888.74256 C 505.35315,888.16495 505.94963,887.73397 506.42113,887.44961 C 506.8926,887.16529 507.38852,887.02347 507.9089,887.02414 C 508.64697,887.06684 509.05207,887.36977 509.1242,887.93292 C 509.1963,888.4961 509.16649,889.0634 509.03476,889.63482 L 507.04757,900.90369 L 511.67409,900.90369 L 513.89437,888.31296 C 514.00861,887.75875 514.08021,887.16529 514.10919,886.53257 C 514.13813,885.89988 514.01582,885.28164 513.74228,884.67784 C 513.45651,884.10023 513.0437,883.66925 512.50384,883.38489 C 511.96395,883.10057 511.34317,882.95875 510.64152,882.95942 C 509.72908,882.94498 508.81595,883.18043 507.90215,883.66579 C 506.98832,884.15117 506.09568,884.97321 505.22424,886.13188 L 505.02596,886.13188 L 505.51163,883.75253 L 506.76455,876.64753 L 502.10498,876.64753 L 497.82759,900.90369 z M 519.3937,887.98249 C 519.94105,887.54119 520.5884,887.11847 521.33575,886.71433 C 522.08308,886.31021 522.95838,886.09403 523.96165,886.06579 C 524.41243,886.07063 524.79336,886.1436 525.10446,886.28473 C 525.41553,886.42588 525.62882,886.60625 525.74432,886.82586 C 525.86623,887.03242 525.91163,887.32157 525.8805,887.69333 C 525.84935,888.06512 525.75677,888.66822 525.60275,889.50263 C 524.81101,889.54946 523.96899,889.67063 523.07668,889.86614 C 522.18436,890.06168 521.28016,890.34808 520.36406,890.72535 C 518.68328,891.49576 517.49639,892.41693 516.80341,893.48887 C 516.11042,894.56082 515.70936,895.5233 515.60025,896.37631 C 515.3324,898.34809 515.64765,899.68372 516.54599,900.3832 C 517.44433,901.08269 518.39997,901.4104 519.41291,901.36634 C 520.19528,901.33742 520.8864,901.20524 521.48628,900.96978 C 522.08614,900.73432 522.46089,900.56909 522.61053,900.47408 C 522.9975,900.26685 523.32712,900.04517 523.59941,899.80902 C 523.87168,899.57288 524.17311,899.27683 524.5037,898.92089 L 524.63589,898.92089 C 524.75626,899.35876 525.04782,899.82141 525.51059,900.30885 C 525.97333,900.79629 526.75425,901.06066 527.85335,901.10197 L 529.20825,901.10197 L 529.7677,897.9295 C 529.3441,897.8758 529.09242,897.70231 529.01266,897.40902 C 528.93287,897.11573 528.90717,896.92571 528.93556,896.83896 L 530.45071,888.24686 C 530.56128,887.77596 530.60235,887.2307 530.57394,886.61106 C 530.5455,885.99145 530.27359,885.34704 529.75822,884.67784 C 529.11626,883.98456 528.29757,883.52054 527.30215,883.28575 C 526.3067,883.051 525.47494,882.94222 524.80686,882.95942 C 522.98228,882.98353 521.54082,883.2245 520.48247,883.68231 C 519.4241,884.14016 518.49344,884.67028 517.69048,885.27267 L 519.3937,887.98249 z M 524.66061,894.65789 C 524.57487,895.30024 524.299,895.99008 523.83301,896.72743 C 523.36701,897.46478 522.61339,897.86547 521.57215,897.9295 C 521.00614,897.91436 520.59417,897.70506 520.33623,897.30161 C 520.07828,896.89817 519.99965,896.39146 520.10034,895.78147 C 520.30986,894.7911 520.74534,894.02899 521.40679,893.49514 C 522.06822,892.96131 522.75905,892.58351 523.47928,892.36177 C 524.1995,892.14004 524.75256,892.00214 525.13847,891.94807 L 524.66061,894.65789 z M 534.81049,883.38902 L 536.64584,900.90369 L 541.14017,900.90369 L 548.85527,883.38902 L 544.39399,883.38902 L 541.58198,889.96528 C 541.29671,890.61865 541.0729,891.14602 540.91056,891.54739 C 540.74821,891.94877 540.53412,892.46788 540.2683,893.1047 L 540.10307,893.1047 L 539.90443,890.29575 L 539.33787,883.38902 L 534.81049,883.38902 z M 549.26985,900.90369 L 553.92941,900.90369 L 556.0448,888.90779 C 556.56513,888.4128 557.08718,887.99008 557.61094,887.63963 C 558.13469,887.28921 558.72189,887.10608 559.37255,887.09023 C 560.10556,887.14601 560.49843,887.45583 560.55116,888.01967 C 560.60387,888.58354 560.57785,889.06684 560.47311,889.46958 L 558.45679,900.90369 L 563.11635,900.90369 L 565.37742,888.08163 C 565.48913,887.60308 565.54605,886.9703 565.54817,886.18329 C 565.55026,885.39631 565.29341,884.68275 564.77761,884.04261 C 564.26177,883.4025 563.28283,883.06347 561.8408,883.02551 C 560.67776,883.05789 559.61513,883.42277 558.65292,884.12018 C 557.69068,884.81761 556.86722,885.65341 556.18253,886.62758 L 556.08339,886.62758 L 556.65448,883.38902 L 552.35843,883.38902 L 549.26985,900.90369 z M 580.93716,893.1047 C 581.34816,890.89886 581.59693,889.23827 581.68347,888.12294 C 581.76998,887.00763 581.62326,886.09059 581.24331,885.37181 C 580.95198,884.7047 580.4584,884.13052 579.76255,883.64926 C 579.06668,883.16804 578.02058,882.91606 576.62425,882.89332 C 575.87073,882.85616 574.9469,882.98835 573.85277,883.28988 C 572.75862,883.59145 571.75225,884.28543 570.83365,885.37181 C 570.08901,886.36185 569.53466,887.53775 569.1706,888.89953 C 568.80653,890.26134 568.50006,891.71814 568.2512,893.26994 C 568.22671,893.39318 568.17955,893.83242 568.1097,894.58767 C 568.03986,895.34292 568.02432,896.07132 568.06309,896.77287 C 568.32831,898.72399 569.09462,899.97701 570.362,900.53191 C 571.62938,901.08682 572.84606,901.33191 574.01204,901.2672 C 575.14545,901.25825 576.157,901.14396 577.04669,900.92434 C 577.93635,900.70472 578.8434,900.43346 579.76782,900.11057 L 579.88984,896.60764 C 578.78514,897.10953 577.86547,897.45239 577.13083,897.63621 C 576.39616,897.82003 575.68689,897.90678 575.003,897.89645 C 573.46604,897.80833 572.62433,897.23277 572.47788,896.16977 C 572.33142,895.10678 572.38628,894.08509 572.64248,893.1047 L 580.93716,893.1047 z M 573.10285,890.49403 C 573.24525,889.33121 573.50673,888.27786 573.8873,887.33395 C 574.26786,886.39007 574.98526,885.89025 576.03951,885.83447 C 577.14421,885.8634 577.74575,886.30952 577.84412,887.17285 C 577.94247,888.0362 577.84914,889.14326 577.56414,890.49403 L 573.10285,890.49403 z"
       id="text3194" />
    <path
       transform="scale(0.8105203,1.2337755)"
       style="font-size:45.68544769px;font-style:normal;font-weight:normal;line-height:125%;fill:#e2e200;fill-opacity:1;stroke:none;stroke-width:1px;stroke-linecap:butt;stroke-linejoin:miter;stroke-opacity:1;font-family:Bitstream Vera Sans"
       d="M 772.56707,698.56074 C 772.59905,700.89591 772.84689,702.5575 773.31059,703.54553 C 773.77429,704.53356 774.26197,705.22778 774.77365,705.62819 C 775.50051,706.34439 776.35729,706.87072 777.34399,707.20717 C 778.33068,707.54362 779.49926,707.71018 780.84974,707.70685 C 781.4067,707.7255 782.17953,707.63223 783.16824,707.42703 C 784.15692,707.22183 785.08965,706.79277 785.96644,706.13986 C 786.91048,705.33771 787.54074,704.55955 787.85722,703.80536 C 788.17367,703.05119 788.36421,702.43292 788.42885,701.95056 C 788.50612,701.50285 788.55942,701.1111 788.58875,700.77531 C 788.61805,700.43954 788.63937,699.8719 788.65271,699.07241 L 783.47205,699.07241 C 783.48935,700.35492 783.29481,701.3796 782.88842,702.14643 C 782.482,702.91327 781.7598,703.30635 780.72182,703.32567 C 779.35802,703.24972 778.52789,702.78602 778.23142,701.93457 C 777.93494,701.08312 777.81635,700.29963 777.87565,699.58408 L 777.87565,690.66183 C 777.85965,690.3234 777.89963,689.91299 777.99557,689.43062 C 778.0915,688.94828 778.33934,688.5059 778.73909,688.10348 C 779.00425,687.86298 779.31338,687.68044 779.6665,687.55583 C 780.01959,687.43126 780.36071,687.36864 780.68984,687.36795 C 781.9177,687.45058 782.67588,687.92494 782.96437,688.79103 C 783.25284,689.65716 783.37943,690.41933 783.34413,691.07756 L 788.49281,691.07756 C 788.49546,690.08822 788.34622,688.98892 788.0451,687.77968 C 787.74394,686.57048 787.08304,685.52716 786.06238,684.6497 C 785.22224,684.02479 784.33614,683.60373 783.40409,683.38652 C 782.47201,683.16935 781.64188,683.06808 780.91369,683.08271 C 778.17345,683.09739 776.09879,683.82759 774.6897,685.2733 C 773.28061,686.71906 772.57306,688.79238 772.56707,691.49329 L 772.56707,698.56074 z M 799.493,687.46389 C 800.97803,687.45725 801.98139,687.47057 802.50306,687.50386 C 803.02471,687.5372 803.46043,687.63047 803.81022,687.78368 C 804.1833,687.8943 804.53241,688.1528 804.85755,688.55918 C 805.18266,688.96561 805.35588,689.71979 805.37721,690.82173 C 805.32456,691.99698 805.06207,692.82045 804.58972,693.29213 C 804.11734,693.76384 803.75091,694.02767 803.49043,694.08362 C 803.21193,694.20623 802.77754,694.28084 802.18727,694.30748 C 801.59697,694.33414 800.69888,694.3448 799.493,694.33946 L 799.493,687.46389 z M 794.31234,707.06726 L 799.493,707.06726 L 799.493,698.27293 L 802.30719,698.17699 C 803.22259,698.16367 804.134,698.08639 805.04143,697.94514 C 805.94883,697.8039 806.82826,697.48677 807.67973,696.99375 C 808.26933,696.69129 808.91291,696.06503 809.61048,695.11496 C 810.30801,694.16492 810.68777,692.78714 810.74975,690.98162 C 810.7524,689.81173 810.57917,688.76174 810.23008,687.83165 C 809.88096,686.9016 809.33997,686.10745 808.60713,685.44919 C 808.00417,684.88224 807.18736,684.4332 806.15671,684.10205 C 805.12602,683.77096 803.75757,683.60173 802.05135,683.59438 L 794.31234,683.59438 L 794.31234,707.06726 z M 815.64187,707.06726 L 820.8865,707.06726 L 820.8865,696.92979 L 827.53821,696.92979 L 827.53821,707.06726 L 832.71887,707.06726 L 832.71887,683.59438 L 827.44227,683.59438 L 827.44227,692.48465 L 820.85452,692.48465 L 820.85452,683.59438 L 815.64187,683.59438 L 815.64187,707.06726 z"
       id="text3198" />
  </g>
</svg>
