<svg width="180" height="50" viewBox="0 0 180 50" fill="none" xmlns="http://www.w3.org/2000/svg">
<g clip-path="url(#clip0_327_2640)">
<path d="M164.902 26.4976L162.666 14.0628C162.488 13.1932 161.759 12.9076 161.189 13.0252L147.987 15.3021C147.587 15.3819 147.34 15.4996 146.995 15.7936C146.995 15.7936 143.644 18.9233 143.154 19.4148C142.664 19.9105 142.354 20.5617 142.498 21.5195L145.049 35.7607C145.232 36.6429 146.016 36.8865 146.565 36.8067C147.114 36.7269 160.128 34.471 160.805 34.3282C161.5 34.1853 162.185 33.7316 162.679 32.8116L164.685 28.5477C165.051 27.7327 165.068 27.5478 164.911 26.4934L164.902 26.4976Z" fill="#FEB700"/>
<path d="M157.812 15.697C157.445 15.991 156.398 16.3355 155.478 16.4657C154.554 16.596 154.107 16.4615 154.473 16.1633C154.844 15.8692 155.887 15.5247 156.811 15.3945C157.735 15.2643 158.182 15.3987 157.816 15.6928L157.812 15.697Z" fill="#004B32"/>
<path d="M155.687 15.1509L152.753 16.0457L150.636 16.0331L153.558 15.1425L155.687 15.1509Z" fill="#004B32"/>
<path d="M147.817 15.8356L150.721 15.3315L149.831 16.2431L146.889 16.7136L147.817 15.8356Z" fill="#004B32"/>
<path d="M149.237 31.6177L146.038 32.1749L146.602 35.3314L149.802 34.7742L149.237 31.6177Z" fill="#004B32"/>
<path d="M149.171 30.6817L147.085 28.2284L148.188 25.2205L150.279 27.6781L149.171 30.6817Z" fill="#004B32"/>
<path d="M152.174 25.5902C151.169 25.7624 150.206 25.1029 150.027 24.1073C149.848 23.1158 150.521 22.1664 151.53 21.99C152.54 21.8135 153.498 22.4773 153.677 23.4729C153.856 24.4643 153.183 25.4138 152.174 25.5902Z" fill="#004B32"/>
<path d="M156.33 23.4099L153.817 20.465L157.658 19.7971L156.33 23.4099Z" fill="#004B32"/>
<path d="M157.701 17.3185L154.844 17.3731L158.527 16.2767L157.701 17.3185Z" fill="#004B32"/>
<path d="M162.279 15.4701L162.428 18.7595L161.521 16.5246L162.279 15.4701Z" fill="#004B32"/>
<path d="M161.265 18.3268C161.453 18.0453 161.734 18.5452 161.891 19.4442C162.053 20.3432 162.032 21.301 161.844 21.5867C161.661 21.8681 161.376 21.3682 161.218 20.4692C161.057 19.5702 161.078 18.6082 161.265 18.3226V18.3268Z" fill="#004B32"/>
<path d="M161.253 22.0194L162.036 24.1451L162.185 27.2496L161.397 25.1407L161.253 22.0194Z" fill="#004B32"/>
<path d="M162.223 31.984L161.683 28.972L162.262 27.8251L162.794 30.7952L162.223 31.984Z" fill="#004B32"/>
<path d="M19.4586 30.8246H15V18.8939H19.4586C22.0222 18.8939 27.4815 18.6335 27.4815 24.8718C27.4815 31.1102 22.0222 30.8246 19.4586 30.8246ZM19.8248 20.6919H17.9298V29.014H19.8248C21.3494 29.014 24.3473 29.2996 24.3473 24.876C24.3473 20.4525 21.3536 20.6919 19.8248 20.6919Z" fill="white"/>
<path d="M34.261 31.0136C31.6761 30.9758 29.3297 30.6019 29.3297 28.1066C29.3297 25.2709 33.2816 25.3886 36.2966 25.3886C36.2966 23.9855 36.2753 23.3553 33.6478 23.3553C32.2212 23.3553 30.7776 23.5444 30.0451 23.6788V21.9858C30.9394 21.8178 32.6726 21.6581 33.8139 21.6581C36.3562 21.6413 39.188 21.8808 39.188 24.6534V30.791C37.3569 30.959 35.8494 31.0472 34.261 31.0136ZM36.2966 26.9429C35.9303 26.9261 34.9296 26.9261 34.6272 26.9261C33.4221 26.9261 32.3234 27.0353 32.3234 28.2326C32.3234 29.4299 33.4221 29.4593 34.6272 29.4593C35.2362 29.4593 35.7259 29.4257 36.2966 29.3585V26.9471V26.9429Z" fill="white"/>
<path d="M59.173 30.9968C57.6868 30.9968 56.3028 30.8246 55.2424 30.6355V28.9426C56.3241 29.1484 57.4611 29.371 58.7259 29.371C59.8075 29.371 61.3107 29.1652 61.3107 28.2914C61.3107 27.4176 60.2121 27.4008 58.5044 27.0815C57.9125 26.9597 55.1615 26.548 55.1615 24.4475C55.1615 22.2084 57.9338 21.6749 59.8884 21.6749C61.9453 21.6749 63.1461 21.8808 63.6359 21.9312V23.5401C63.3293 23.4855 61.8218 23.2461 60.4591 23.2461C59.5435 23.2461 58.1169 23.3847 58.1169 24.2207C58.1169 25.0567 59.684 25.1785 60.7231 25.3465C62.0858 25.5692 64.3683 26.0313 64.3683 27.9469C64.3683 29.8626 62.3285 30.9884 59.173 30.9884V30.9968Z" fill="white"/>
<path d="M73.8391 30.8246L69.6786 26.3002V30.8246H66.7871V18.8645H69.6786V25.8045L73.9541 21.8514H77.4163L72.6297 26.0103L77.6079 30.8246H73.8391Z" fill="white"/>
<path d="M129.646 30.8246H126.755V18.8645H129.646V30.8246Z" fill="white"/>
<path d="M49.4339 30.8246V24.9979C49.4339 24.5358 49.3743 23.5023 47.9094 23.5023C46.8916 23.5023 45.976 23.6158 45.2393 23.683V30.8246H42.3478V22.1244C45.1414 21.843 47.5133 21.6791 49.0464 21.7127C50.5752 21.7464 52.3297 22.4479 52.3297 24.519V30.8288H49.4382L49.4339 30.8246Z" fill="white"/>
<path d="M115.282 30.5011C114.55 30.7574 113.554 30.875 112.472 30.875C111.88 30.875 111.492 30.8414 110.901 30.7742V34.3324H108.009V21.8346C108.882 21.801 110.696 21.7127 111.837 21.7127C113.366 21.7127 114.652 21.8346 115.87 22.4143C117.62 23.2713 118.119 24.7164 118.119 26.1363C118.119 27.9133 117.335 29.7617 115.278 30.4969L115.282 30.5011ZM112.408 23.4309C111.331 23.4309 110.901 23.4981 110.901 23.4981V29.0308C110.901 29.0308 111.514 29.1358 112.348 29.1358C114.546 29.1358 115.172 27.9049 115.172 26.317C115.172 24.5904 114.588 23.4309 112.408 23.4309Z" fill="white"/>
<path d="M78.1955 26.422C78.1955 23.4981 79.9926 21.6497 83.6549 21.6497C87.6451 21.6497 88.9907 23.4141 88.9056 27.0017H81.2489C81.432 29.0182 83.2035 29.4299 84.9963 29.4299C86.2398 29.4299 87.1553 29.2744 88.0709 29.1232V30.6607C88.0709 30.6607 86.2781 31.0178 84.2809 31.0178C80.921 31.0178 78.1913 29.8542 78.1913 26.4178L78.1955 26.422ZM83.5612 23.2041C81.9132 23.2041 81.2574 24.2795 81.2574 25.4978H85.8693C85.8693 24.3509 85.4775 23.2041 83.5612 23.2041Z" fill="white"/>
<path d="M120.525 30.8288V22.8218H123.416V30.8288H120.525Z" fill="white"/>
<path d="M120.525 21.4439V18.8645H123.416V21.4439H120.525Z" fill="white"/>
<path d="M95.3571 30.4759V28.5561C95.3571 28.5561 97.7461 29.0518 99.5858 29.0518C100.829 29.0518 102.852 28.7703 102.852 27.4344C102.852 25.0525 95.2549 26.8169 95.2549 22.5823C95.2549 19.7719 98.074 18.8981 101.217 18.8981C103.197 18.8981 104.892 19.2384 104.892 19.2384V21.091C104.892 21.091 103.257 20.7633 101.502 20.7633C100.399 20.7633 98.3381 21.0196 98.3381 22.2883C98.3381 24.9307 105.995 22.6705 105.995 27.2118C105.995 30.039 102.626 30.9044 99.8498 30.9044C97.299 30.9044 95.3571 30.4759 95.3571 30.4759Z" fill="white"/>
</g>
<defs>
<clipPath id="clip0_327_2640">
<rect width="150" height="23.8235" fill="white" transform="translate(15 13)"/>
</clipPath>
</defs>
</svg>
