<?xml version="1.0" encoding="utf-8"?>
<!-- Generator: Adobe Illustrator 23.0.1, SVG Export Plug-In . SVG Version: 6.00 Build 0)  -->
<svg version="1.1" id="Layer_1" xmlns="http://www.w3.org/2000/svg" xmlns:xlink="http://www.w3.org/1999/xlink" x="0px" y="0px"
	 viewBox="0 0 1000 1000" style="enable-background:new 0 0 1000 1000;" xml:space="preserve">
<style type="text/css">
	.st0{fill:#FFFFFF;}
</style>
<g>
	<path d="M20.1,433.2c0-15.5,2.3-40.1-14.2-45.1v-1h79.3c73.8,0,128.9,44.1,128.9,111.1C214,564.5,155.9,611,83.4,611H5.8V610
		c16.2-11.5,14.2-27.6,14.2-47.5V433.2z"/>
	<path class="st0" d="M53,589c7.8,1.7,29.4,2.3,37.5,2.3c48.2,0,86.6-30.9,86.6-89.2c0-58.9-27.1-104.8-81.1-104.8
		c-9.7,0-33.3,1.3-43,3.7V589z"/>
	<path d="M256.6,544.3l-15.6,32c-6.8,18.2-9.1,27.7,6.4,33.6v1h-59.5v-1c18.8-9.5,24.8-26.5,34.3-45.1l87.4-201.2l77.3,200.1
		c7.4,18.6,13.3,36.8,31.7,46.3v1h-59.4v-1c15.8-7.2,13.2-10.8,4.5-33.6l-12.8-32H256.6z"/>
	<path class="st0" d="M305.2,423.7l-43.6,105.2h84.6L305.2,423.7z"/>
	<path d="M456.4,568.6c0,18.2-0.3,31.3,16.8,41.4v1H416v-1c17.1-10.1,17.1-23.1,17.1-41.4V429.4c0-18.2,0-31.3-16.8-41v-1h42.6v0.3
		c1.3,3.9,2.6,5.5,4.8,8.1l4.5,6.5L600.6,562V429.4c0-18.2,0.3-31.3-16.8-41v-1h56.9v1c-16.8,9.8-16.8,22.8-16.8,41.1v207
		L456.4,437.9V568.6L456.4,568.6z M768.5,435.4c-11.4-13-29.5-20.5-45.8-20.5c-16.6,0-37.6,7.2-37.6,29.6
		c0,44.6,100.3,44,100.3,104.2c0,34.9-32.7,67.4-78.2,67.4c-17.9,0.2-35.6-3.1-52.2-9.8l-8.4-40.7c17.2,16.6,41.1,27,63.9,27
		c16.6,0,41.7-11.1,41.7-33.9c0-50.8-100.3-41.7-100.3-110.7c0-41,37.6-56.7,73.2-56.7c14.6,0,29.5,2.3,43.5,7.2L768.5,435.4
		L768.5,435.4z M931.3,616.1v1h62.9c-6.9-1.2-18.1-9.6-18.1-9.6l-117-106l117.3-97.6c0,0,8.8-8.4,15.8-9.6h-53.6v1
		c18.2,4.6-14.8,26.9-25.8,37.2l-68,60.3v-50.5c0-14.7-1.9-41.1,14.6-46.9v-1h-62.1v1c16.5,6.2,14.6,32.3,14.6,46.9V565
		c0,14.7,1.9,38.7-14.6,45v1h62.1v-1c-16.5-6.2-14.6-30-14.6-45v-45.5l76.5,72.2C932.3,602,940.7,610.8,931.3,616.1L931.3,616.1z"/>
</g>
</svg>
