<svg xmlns="http://www.w3.org/2000/svg" xml:space="preserve" width="1348.198" height="510" viewBox="0 0 1348.198 510"><path d="M 130,130 C 130,60.95842 185.95842,5 255,5 324.04158,5 380,60.95842 380,130 Z m 0,250 C 130,310.95842 185.95842,255 255,255 185.95842,255 130,199.04158 130,130 60.958424,130 5,185.95842 5,255 5,324.04158 60.958424,380 130,380 Z m 0,0 c 0,69.04158 55.95842,125 125,125 69.04158,0 125,-55.95842 125,-125 z M 255,255 c 69.04158,0 125,55.95842 125,125 69.04158,0 125,-55.95842 125,-125 0,-69.04158 -55.98864,-125 -125,-125 0,69.04158 -55.95842,125 -125,125 z" style="fill:#00827a;stroke-width:3.02151"/><path d="m 820.08339,130 h 77.4716 V 379.96978 H 840.14624 V 211.85279 L 766.72347,379.96978 689.43316,211.64129 V 379.96978 H 635.86174 V 130 h 76.56514 l 55.20305,129.38119 z m 281.69571,73.81557 c 0,-49.37153 -37.9502,-78.0759 -83.3334,-78.0759 -44.9903,0 -94.05967,26.34759 -94.05967,77.53202 0,44.38603 48.85787,67.19846 76.74647,74.38966 15.319,4.04883 53.9642,8.36959 53.9642,35.98622 0,26.25695 -27.0123,33.41794 -47.2263,33.41794 -26.04541,0 -41.33426,-18.24994 -39.09834,-45.80614 h -51.21465 c -1.78269,62.18274 40.48828,85.35774 89.85979,86.4757 57.0764,1.29925 100.6466,-23.08436 100.6466,-78.04568 0,-55.26348 -49.4319,-63.96544 -88.0771,-76.50472 -14.9867,-4.86463 -42.69398,-9.1854 -42.69398,-34.68697 0,-21.36209 18.43123,-31.57481 37.28548,-31.57481 24.2627,0 36.8322,11.99541 38.6452,36.92289 h 48.5557 m 108.0191,-74.11772 h -79.6471 v 249.75828 h 79.6471 c 66.2315,0 133.3998,-38.25235 133.3998,-124.63742 0,-86.44549 -67.1985,-125.12086 -133.3998,-125.12086 z m -3.5956,204.28451 -22.0571,0.0604 v -0.0604 -158.38772 h 22.0571 c 60.7324,0 82.6081,39.61204 82.6081,79.19386 0,39.58182 -21.9059,79.19386 -82.6081,79.19386 z" style="fill:#2f3e4a;stroke-width:3.02151"/></svg>