<?xml version="1.0" encoding="utf-8"?>
<!-- Generator: Adobe Illustrator 13.0.2, SVG Export Plug-In  -->
<!DOCTYPE svg PUBLIC "-//W3C//DTD SVG 1.1//EN" "http://www.w3.org/Graphics/SVG/1.1/DTD/svg11.dtd" [
	<!ENTITY ns_flows "http://ns.adobe.com/Flows/1.0/">
]>
<svg version="1.1"
	 xmlns="http://www.w3.org/2000/svg" xmlns:xlink="http://www.w3.org/1999/xlink" xmlns:a="http://ns.adobe.com/AdobeSVGViewerExtensions/3.0/"
	 x="0px" y="0px" width="62px" height="47px" viewBox="-0.904 -0.721 62 47" enable-background="new -0.904 -0.721 62 47"
	 xml:space="preserve">
<defs>
</defs>
<path fill="#004F93" d="M23.197,9.842c0.295-0.196,0.51-0.37,0.627-0.464c0.563-0.457,0.754-0.196,0.247,0.626
	c-0.663,1.075-1.727,1.749-2.999,2.384c-0.256,0.128-0.553,0.248,0.029,0.523c0.489,0.231,1.693,0.721,2.756,1.021
	c0.612,0.173,4.746,1.613,8.678,1.598c2.855-0.011,5.414-0.379,6.884-0.503c1.104-0.092,3.504-0.304,4.698,1.841
	c0.998,1.793,0.787,7.396,0.839,8.671c0.036,0.92,0,8.401-0.007,9.057c-0.006,0.442-0.038,0.78-0.368,0.817
	c-0.301,0.033-1.164,0.019-1.322,0.019c-0.091,0-0.416-0.007-0.692-0.007c-0.485,0-0.475,0.227-0.475,0.358
	c0,0.277,0.104,0.586-0.521,0.608c-0.43,0.013-1.813,0-1.992,0c-0.303,0-0.469-0.372-0.203-0.85
	c2.538-4.583,2.355-8.069,0.857-10.018c-0.104,0.358-0.198,0.653-0.273,1.056c-0.196,1.062-0.414,1.53-0.647,1.717
	c-2.663,2.153-3.943,5.339-4.563,6.998c-0.131,0.347-0.387,0.217-0.503,0.37c-0.192,0.247,0.22,0.698-0.566,0.724
	c-0.316,0.01-1.853,0.006-2.161,0.007c-0.361,0.002-0.565-0.442-0.203-0.887c0.819-1,5.482-5.409,5.25-9.997
	c-0.01-0.196-0.141-1.171-0.336-1.355c-0.043-0.041-0.819-0.715-2.499,0.669c-0.19,0.159-0.215,0.099-0.456-0.037
	c-0.261-0.147-2.295-0.879-3.78-0.436c-0.942,0.279-2.052,1.445-1.628,3.289c0.597,2.606,1.931,4.842,2.447,7.472
	c0.065,0.473-0.264,0.353-0.403,0.532c-0.191,0.248,0.215,0.739-0.606,0.74c-0.257,0.002-2.073,0-2.073,0
	c-0.387,0.015-0.594-0.159-0.34-0.967c0.076-0.239,0.148-0.637,0.242-1.479c0.087-0.777,0-1.588-0.147-2.5
	c-0.48-2.982-2.101-4.448-3.453-5.331c-0.914,0.581-2.388,5.075-2.807,8.094c-0.068,0.488-0.078,0.601-0.087,0.729
	c-0.058,0.756-0.507,0.484-0.634,0.698c-0.176,0.298,0.176,0.762-0.643,0.762c-0.978,0-1.502,0.006-1.953,0.001
	c-0.397-0.004-0.457-0.439-0.162-0.969c1.24-2.229,3.192-5.671,3.155-9.386c-0.002-0.43,0.001-1.707-0.593-2.415
	c-1.332-1.592-2.079-3.506-2.762-4.732c-0.473-0.846-1.164-1.042-1.62-1.186c-0.455-0.142-0.843,0.06-1.354-0.229
	c-0.142-0.079-0.51-0.571-0.852-0.947c-0.284-0.313-0.489-0.765-0.153-1.19c0.591-0.746,1.08-1.233,1.149-1.71
	c0.017-0.114-0.006-0.356,0.036-0.472c0.139-0.374,0.641-0.975,1.007-1.422c0.176-0.213,0.028-0.581-0.293-0.953
	c-0.318-0.371-1.274-1.68-1.274-3.838c0-0.856,0.302-0.813,0.514-0.23c0.213,0.585,1.122,3.129,3.841,3.856
	C20.598,11.25,22.275,10.513,23.197,9.842 M43.011,18.477c-0.013,0.141,0.036,1.007-0.11,2.519
	c-0.093,0.939-0.332,1.659-0.188,2.384c0.14,0.726,0.521,3.042,0.691,3.258c0.151,0.183,0.368,0.049,0.364-0.128
	c-0.001-0.128,0.232-6.316-0.315-7.856C43.268,18.14,43.045,18.107,43.011,18.477z"/>
<path fill="#004F93" d="M30.824,45.047v-4.188c0-0.713-0.013-1.999-2.448-1.999c-0.924,0-1.555,0.181-1.894,0.291
	c-0.412,0.132-0.547,0.289-0.547,0.497v5.41c0,0.208,0.061,0.231,0.232,0.231h0.594c0.168,0,0.255-0.023,0.255-0.242v-4.974
	c0-0.281,0.459-0.557,1.311-0.557c1.417,0,1.417,0.908,1.417,1.479v4.052c0,0.219,0.072,0.242,0.268,0.242h0.668
	C30.812,45.266,30.824,45.155,30.824,45.047"/>
<path fill="#004F93" d="M37.246,42.172c0-1.456-0.463-2.39-1.166-2.862c-0.438-0.304-1.021-0.45-1.58-0.45
	c-0.555,0-1.139,0.146-1.575,0.45c-0.703,0.472-1.163,1.406-1.163,2.862c0,1.444,0.46,2.377,1.163,2.85
	c0.437,0.303,1.021,0.451,1.575,0.451c0.559,0,1.143-0.148,1.58-0.451C36.783,44.549,37.246,43.616,37.246,42.172 M36.127,42.172
	c0,1.141-0.231,1.878-0.569,2.196c-0.328,0.316-0.632,0.4-1.058,0.4c-0.423,0-0.728-0.084-1.053-0.4
	c-0.342-0.318-0.571-1.055-0.571-2.196c0-1.154,0.229-1.891,0.571-2.211c0.325-0.313,0.63-0.398,1.053-0.398
	c0.426,0,0.729,0.085,1.058,0.398C35.896,40.281,36.127,41.018,36.127,42.172z"/>
<path fill="#004F93" d="M41.568,39.49c0-0.438-0.739-0.63-1.576-0.63c-0.655,0-1.068,0.108-1.383,0.192
	c-0.414,0.112-0.56,0.291-0.56,0.498v5.533c0,0.196,0.074,0.206,0.244,0.206h0.618c0.146,0,0.22-0.01,0.22-0.206v-5.07
	c0-0.329,0.254-0.548,0.618-0.548c0.777,0,0.896,0.573,1.311,0.573C41.34,40.038,41.568,39.841,41.568,39.49"/>
<path fill="#004F93" d="M46.906,44.622v-7.618c0-0.219-0.061-0.246-0.242-0.246h-0.597c-0.203,0-0.229,0.075-0.229,0.269v2.2
	c-0.378-0.198-0.753-0.331-1.324-0.331c-1.88,0-2.848,1.783-2.848,3.276c0,2.211,1.223,3.301,3.069,3.301
	C45.643,45.473,46.906,45.022,46.906,44.622 M45.839,44.27c0,0.317-0.51,0.485-1.069,0.485c-1.175,0-2.012-0.982-2.012-2.667
	c0-1.47,0.8-2.453,1.916-2.453c0.633,0,0.934,0.193,1.165,0.389V44.27z"/>
<path fill="#004F93" d="M49.538,37.258c-0.013-0.363-0.304-0.609-0.642-0.609c-0.388,0-0.67,0.269-0.67,0.645
	c0,0.34,0.245,0.629,0.654,0.629C49.297,37.923,49.549,37.596,49.538,37.258 M49.418,45.072v-5.837c0-0.194-0.049-0.23-0.242-0.23
	h-0.631c-0.206,0-0.206,0.071-0.206,0.23v5.837c0,0.169,0,0.217,0.181,0.217h0.656C49.357,45.289,49.418,45.279,49.418,45.072z"/>
<path fill="#004F93" d="M60.182,45.155c0-0.059-0.036-0.097-0.086-0.159l-2.303-3.043L57.78,41.94
	c0.803-0.593,1.648-1.539,2.162-2.559c0.058-0.121,0.067-0.17,0.067-0.243c0-0.109-0.061-0.133-0.217-0.133h-0.571
	c-0.216,0-0.313-0.011-0.376,0.182c-0.339,1.041-1.236,2.16-2.146,2.692c-0.035,0.026-0.048,0.061-0.048,0.074
	c0,0.025,0.013,0.048,0.024,0.062l2.16,3.093c0.122,0.181,0.17,0.181,0.361,0.181h0.825C60.062,45.289,60.182,45.279,60.182,45.155
	 M56.479,45.108v-8.213c0-0.173-0.083-0.173-0.23-0.173h-0.641c-0.134,0-0.207,0.025-0.207,0.196v8.178
	c0,0.17,0.037,0.193,0.207,0.193h0.641C56.42,45.289,56.479,45.289,56.479,45.108z"/>
<path fill="#004F93" d="M54.55,43.592c0-2.04-2.986-1.723-2.986-3.07c0-0.461,0.364-0.936,1.042-0.936
	c0.706,0,0.89,0.463,1.25,0.463c0.184,0,0.438-0.109,0.438-0.426c0-0.459-0.788-0.727-1.625-0.727c-1.105,0-2.073,0.594-2.073,1.722
	c0,1.043,0.739,1.493,1.624,1.868c0.705,0.294,1.358,0.559,1.358,1.227c0,0.498-0.401,1.067-1.248,1.067
	c-0.851,0-1.095-0.631-1.506-0.631c-0.205,0-0.463,0.085-0.463,0.4c0,0.498,0.974,0.924,1.955,0.924
	C53.408,45.473,54.55,44.891,54.55,43.592"/>
<path fill="#004F93" d="M4.887,45.047v-4.188c0-0.713-0.013-1.999-2.451-1.999c-0.922,0-1.553,0.181-1.893,0.291
	C0.131,39.283,0,39.44,0,39.648v5.41c0,0.208,0.059,0.231,0.229,0.231h0.594c0.17,0,0.258-0.023,0.258-0.242v-4.974
	c0-0.281,0.46-0.557,1.308-0.557c1.417,0,1.417,0.908,1.417,1.479v4.052c0,0.219,0.076,0.242,0.27,0.242h0.668
	C4.874,45.266,4.887,45.155,4.887,45.047"/>
<path fill="#004F93" d="M11.307,42.172c0-1.456-0.462-2.39-1.164-2.862c-0.438-0.304-1.02-0.45-1.58-0.45
	c-0.557,0-1.138,0.146-1.575,0.45c-0.704,0.472-1.163,1.406-1.163,2.862c0,1.444,0.459,2.377,1.163,2.85
	c0.438,0.303,1.019,0.451,1.575,0.451c0.561,0,1.143-0.148,1.58-0.451C10.845,44.549,11.307,43.616,11.307,42.172 M10.19,42.172
	c0,1.141-0.23,1.878-0.57,2.196c-0.328,0.316-0.631,0.4-1.058,0.4c-0.422,0-0.726-0.084-1.055-0.4
	c-0.338-0.318-0.568-1.055-0.568-2.196c0-1.154,0.23-1.891,0.568-2.211c0.329-0.313,0.633-0.398,1.055-0.398
	c0.427,0,0.729,0.085,1.058,0.398C9.96,40.281,10.19,41.018,10.19,42.172z"/>
<path fill="#004F93" d="M22.388,42.172c0-1.456-0.46-2.39-1.165-2.862c-0.436-0.304-1.017-0.45-1.577-0.45
	c-0.558,0-1.14,0.146-1.577,0.45c-0.701,0.472-1.164,1.406-1.164,2.862c0,1.444,0.463,2.377,1.164,2.85
	c0.438,0.303,1.02,0.451,1.577,0.451c0.561,0,1.142-0.148,1.577-0.451C21.928,44.549,22.388,43.616,22.388,42.172 M21.273,42.172
	c0,1.141-0.23,1.878-0.571,2.196c-0.329,0.316-0.632,0.4-1.057,0.4c-0.423,0-0.727-0.084-1.056-0.4
	c-0.339-0.318-0.569-1.055-0.569-2.196c0-1.154,0.23-1.891,0.569-2.211c0.329-0.313,0.633-0.398,1.056-0.398
	c0.425,0,0.728,0.085,1.057,0.398C21.043,40.281,21.273,41.018,21.273,42.172z"/>
<path fill="#004F93" d="M16.805,39.129c0-0.124-0.097-0.124-0.158-0.124h-0.605c-0.086,0.011-0.11,0.047-0.146,0.17l-1.577,4.621
	L12.679,39.2c-0.06-0.171-0.084-0.195-0.266-0.195h-0.739c-0.05,0-0.17,0-0.17,0.146c0,0.049,0.021,0.109,0.048,0.17l2.195,5.775
	c0.061,0.145,0.086,0.183,0.181,0.193h0.475c0.145,0,0.17-0.01,0.231-0.181l2.122-5.787C16.805,39.175,16.805,39.151,16.805,39.129"
	/>
<path fill="#004F93" d="M15.061,4.907c0-2.71,2.197-4.907,4.906-4.907c2.71,0,4.906,2.197,4.906,4.907
	c0,2.709-2.196,4.906-4.906,4.906C17.258,9.813,15.061,7.616,15.061,4.907"/>
<path fill="#00AAD9" d="M16.856,4.329c0-1.824,1.479-3.303,3.305-3.303c1.822,0,3.301,1.479,3.301,3.303
	c0,1.824-1.479,3.303-3.301,3.303C18.336,7.632,16.856,6.153,16.856,4.329"/>
<path fill="#00AAD9" d="M29.697,16.929c-0.058-0.446-0.137-0.771,0.601-0.734c0.992,0.047,1.478,0.099,2.085,0.092
	c0.738-0.008,1.593-0.028,1.918-0.056c0.587-0.052,0.962,0.123,1.154,0.584c0.186,0.446,0.85,2.282-0.246,2.795
	c-1.404,0.657-3.442,0.741-4.451,0.444c-0.376-0.11-0.981-0.253-0.972-1.006C29.79,18.789,29.81,17.81,29.697,16.929"/>
<path fill="#00AAD9" d="M38.268,16.468c0.564,0.625,0.899,1.652,0.969,2.096c0.072,0.44,0.669,0.27,0.743-0.143
	c0.11-0.614-0.085-1.629-0.537-2.173c-0.208-0.252-0.564-0.363-0.979-0.284C38.072,16.039,37.965,16.131,38.268,16.468"/>
<path fill="#00AAD9" d="M29.908,23.009c-0.302,0.1-2.846,0.82-2.893,3.436c-0.014,0.775-0.232,0.7-0.594,0.425
	c-1.253-0.964-2.547-1.866-4.282-2.896c-0.828-0.493-1.546-1.184-1.808-1.646c-0.422-0.738-0.994-1.871-0.348-3.618
	c0.319-0.863,0.981-2.22,1.483-2.962c0.821-1.212,0.738-1.227,2.327-0.715c1.424,0.46,1.35,0.634,1.37,1.334
	c0.025,0.916-0.091,1.747-0.282,2.591c-0.102,0.444,0.186,0.947,0.732,0.959c2.238,0.063,2.284-3.04,2.286-3.048
	c0.046-0.723-0.227-0.867,0.491-0.799c0.535,0.052,0.631,0.506,0.71,1.326c0.027,0.3,0.008,1.471,0.008,1.789
	c0,0.319,0.035,1.151,1.134,1.451c1.814,0.498,4.342,0.102,5.378-0.512c0.608-0.36,0.998-0.771,0.921-1.645
	c-0.059-0.649-0.239-1.462-0.363-1.766c-0.135-0.338-0.111-0.573,0.171-0.611c1.367-0.183,1.98,1.237,2.448,2.972
	c0.148,0.562,0.928,0.526,1.324,0.141c0.385-0.375,0.607-0.97,0.331-2.082c-0.091-0.364-0.219-0.65-0.325-0.832
	c-0.098-0.165-0.126-0.313,0.248-0.315c2.492-0.016,1.865,4.601,1.836,4.996c-0.037,0.492-0.243,1.554-0.353,2.045
	c-0.44,2.03-1.493,1.217-1.824,1.008c-1.044-0.655-2.216-1.146-3.814-1.29C32.828,22.44,30.917,22.668,29.908,23.009"/>
<path fill="#00AAD9" d="M21.158,14.025c-0.421-0.257-1.302-0.709-2.171-1.217c-1.577-0.92-2.376-1.406-2.969-0.928
	c-0.62,0.5-1.089,1.181-1.174,1.42c-0.086,0.239-0.048,0.817-0.259,1.077c-0.156,0.193-0.389,0.564-0.715,0.962
	c-0.451,0.55-0.123,0.726,0.357,1.304c0.453,0.542,1.48-0.021,2.63,0.889c0.58,0.457,0.787,0.814,1.54,1.995
	c0.251,0.395,0.404,0.163,0.61-0.377c0.289-0.749,1.274-2.845,2.022-3.99C21.28,14.778,21.63,14.315,21.158,14.025 M15.76,13.802
	c-0.47-0.799,1.249-1.024,1.331-0.777C17.174,13.271,16.231,14.602,15.76,13.802z"/>
<path fill="#00AAD9" d="M25.872,16.089c0.122,1.431-0.269,2.564-0.264,2.783c0.007,0.292,0.369,0.37,0.654,0.212
	c0.514-0.284,0.903-1.262,0.873-2.764c-0.007-0.366,0.011-0.53-0.612-0.63C25.927,15.592,25.832,15.618,25.872,16.089"/>
</svg>
