<svg xmlns="http://www.w3.org/2000/svg" viewBox="0 0 64 64" fill="none">
  <circle cx="16" cy="16" r="6" fill="#C9A961"/>
  <circle cx="32" cy="16" r="6" fill="#C9A961"/>
  <circle cx="48" cy="16" r="6" fill="#C9A961"/>
  <path d="M8 28c0-4 3.5-6 8-6s8 2 8 6v20H8V28z" fill="#C9A961"/>
  <path d="M24 28c0-4 3.5-6 8-6s8 2 8 6v20H24V28z" fill="#C9A961"/>
  <path d="M40 28c0-4 3.5-6 8-6s8 2 8 6v20H40V28z" fill="#C9A961"/>
  <circle cx="24" cy="24" r="4" fill="#C9A961" opacity="0.6"/>
  <circle cx="40" cy="24" r="4" fill="#C9A961" opacity="0.6"/>
  <path d="M18 36c0-3 2.5-4 6-4s6 1 6 4v12h-12V36z" fill="#C9A961" opacity="0.6"/>
  <path d="M34 36c0-3 2.5-4 6-4s6 1 6 4v12h-12V36z" fill="#C9A961" opacity="0.6"/>
</svg>
